<mxfile host="app.diagrams.net" modified="2023-06-03T14:28:45.763Z" agent="Mozilla/5.0 (Windows NT 10.0; Win64; x64) AppleWebKit/537.36 (KHTML, like Gecko) Chrome/113.0.0.0 Safari/537.36" etag="Y-uJoWkbbtCfVVCqku4P" version="21.2.4" type="device">
  <diagram name="Page-1" id="U3Iz8EhhDlZxTjf7-NHz">
    <mxGraphModel dx="1764" dy="1074" grid="1" gridSize="10" guides="1" tooltips="1" connect="1" arrows="1" fold="1" page="1" pageScale="1" pageWidth="850" pageHeight="1100" math="0" shadow="0">
      <root>
        <mxCell id="0" />
        <mxCell id="1" parent="0" />
        <mxCell id="cIPJjEdQytVBV7SKIHsa-7" value="Наслеђује" style="endArrow=block;endSize=16;endFill=0;html=1;strokeWidth=3;fontSize=24;exitX=0.5;exitY=0;exitDx=0;exitDy=0;entryX=0.344;entryY=1;entryDx=0;entryDy=0;entryPerimeter=0;" edge="1" parent="1" source="cIPJjEdQytVBV7SKIHsa-9" target="cIPJjEdQytVBV7SKIHsa-38">
          <mxGeometry width="160" relative="1" as="geometry">
            <mxPoint x="545" y="674.5" as="sourcePoint" />
            <mxPoint x="805.441988950276" y="380" as="targetPoint" />
          </mxGeometry>
        </mxCell>
        <mxCell id="cIPJjEdQytVBV7SKIHsa-8" value="1" style="endArrow=open;html=1;endSize=12;startArrow=diamondThin;startSize=14;startFill=1;edgeStyle=orthogonalEdgeStyle;align=left;verticalAlign=bottom;strokeWidth=3;fontSize=24;exitX=1;exitY=0.5;exitDx=0;exitDy=0;entryX=0;entryY=0.1;entryDx=0;entryDy=0;entryPerimeter=0;" edge="1" parent="1" source="cIPJjEdQytVBV7SKIHsa-19" target="cIPJjEdQytVBV7SKIHsa-35">
          <mxGeometry x="-1" y="3" relative="1" as="geometry">
            <mxPoint x="-40" y="130" as="sourcePoint" />
            <mxPoint x="609.48" y="259.70000000000005" as="targetPoint" />
            <Array as="points">
              <mxPoint x="450" y="225" />
              <mxPoint x="450" y="190" />
            </Array>
          </mxGeometry>
        </mxCell>
        <mxCell id="cIPJjEdQytVBV7SKIHsa-9" value="AutomatSaNovcem" style="swimlane;fontStyle=1;align=center;verticalAlign=top;childLayout=stackLayout;horizontal=1;startSize=40;horizontalStack=0;resizeParent=1;resizeParentMax=0;resizeLast=0;collapsible=1;marginBottom=0;strokeWidth=3;fontSize=24;" vertex="1" parent="1">
          <mxGeometry x="510" y="680" width="290" height="180" as="geometry" />
        </mxCell>
        <mxCell id="cIPJjEdQytVBV7SKIHsa-10" value=" " style="text;strokeColor=none;fillColor=none;align=left;verticalAlign=top;spacingLeft=4;spacingRight=4;overflow=hidden;rotatable=0;points=[[0,0.5],[1,0.5]];portConstraint=eastwest;fontSize=18;" vertex="1" parent="cIPJjEdQytVBV7SKIHsa-9">
          <mxGeometry y="40" width="290" height="30" as="geometry" />
        </mxCell>
        <mxCell id="cIPJjEdQytVBV7SKIHsa-11" value="" style="line;strokeWidth=1;fillColor=none;align=left;verticalAlign=middle;spacingTop=-1;spacingLeft=3;spacingRight=3;rotatable=0;labelPosition=right;points=[];portConstraint=eastwest;" vertex="1" parent="cIPJjEdQytVBV7SKIHsa-9">
          <mxGeometry y="70" width="290" height="8" as="geometry" />
        </mxCell>
        <mxCell id="cIPJjEdQytVBV7SKIHsa-12" value="void Ubacivanje(double iznos)&#xa;void IzborProizvoda(double cena)&#xa;void Odustajanje()&#xa;void Cekanje()&#xa;&#xa;" style="text;strokeColor=none;fillColor=none;align=left;verticalAlign=top;spacingLeft=4;spacingRight=4;overflow=hidden;rotatable=0;points=[[0,0.5],[1,0.5]];portConstraint=eastwest;fontSize=18;" vertex="1" parent="cIPJjEdQytVBV7SKIHsa-9">
          <mxGeometry y="78" width="290" height="102" as="geometry" />
        </mxCell>
        <mxCell id="cIPJjEdQytVBV7SKIHsa-17" value="Наслеђује" style="endArrow=block;endSize=16;endFill=0;html=1;strokeWidth=3;fontSize=24;exitX=0.5;exitY=0;exitDx=0;exitDy=0;entryX=0;entryY=1;entryDx=0;entryDy=0;" edge="1" parent="1" source="cIPJjEdQytVBV7SKIHsa-49" target="cIPJjEdQytVBV7SKIHsa-35">
          <mxGeometry width="160" relative="1" as="geometry">
            <mxPoint x="580" y="524.9999999999998" as="sourcePoint" />
            <mxPoint x="610" y="390" as="targetPoint" />
          </mxGeometry>
        </mxCell>
        <mxCell id="cIPJjEdQytVBV7SKIHsa-18" value="ProdajniAutomat" style="swimlane;fontStyle=1;align=center;verticalAlign=top;childLayout=stackLayout;horizontal=1;startSize=40;horizontalStack=0;resizeParent=1;resizeParentMax=0;resizeLast=0;collapsible=1;marginBottom=0;strokeWidth=3;fontSize=24;" vertex="1" parent="1">
          <mxGeometry x="140" y="160" width="280" height="200" as="geometry" />
        </mxCell>
        <mxCell id="cIPJjEdQytVBV7SKIHsa-19" value="AutomatUNekomStanju aktivni" style="text;strokeColor=none;fillColor=none;align=left;verticalAlign=top;spacingLeft=4;spacingRight=4;overflow=hidden;rotatable=0;points=[[0,0.5],[1,0.5]];portConstraint=eastwest;fontSize=18;" vertex="1" parent="cIPJjEdQytVBV7SKIHsa-18">
          <mxGeometry y="40" width="280" height="50" as="geometry" />
        </mxCell>
        <mxCell id="cIPJjEdQytVBV7SKIHsa-20" value="" style="line;strokeWidth=1;fillColor=none;align=left;verticalAlign=middle;spacingTop=-1;spacingLeft=3;spacingRight=3;rotatable=0;labelPosition=right;points=[];portConstraint=eastwest;" vertex="1" parent="cIPJjEdQytVBV7SKIHsa-18">
          <mxGeometry y="90" width="280" height="8" as="geometry" />
        </mxCell>
        <mxCell id="cIPJjEdQytVBV7SKIHsa-21" value="void Ubacivanje(double iznos)&#xa;void IzborProizvoda(double cena)&#xa;void Odustajanje()&#xa;void Cekanje()&#xa;&#xa;" style="text;strokeColor=none;fillColor=none;align=left;verticalAlign=top;spacingLeft=4;spacingRight=4;overflow=hidden;rotatable=0;points=[[0,0.5],[1,0.5]];portConstraint=eastwest;fontSize=18;" vertex="1" parent="cIPJjEdQytVBV7SKIHsa-18">
          <mxGeometry y="98" width="280" height="102" as="geometry" />
        </mxCell>
        <mxCell id="cIPJjEdQytVBV7SKIHsa-32" value="&lt;font style=&quot;font-size: 24px;&quot;&gt;Користи&lt;/font&gt;" style="text;html=1;strokeColor=none;fillColor=none;align=center;verticalAlign=middle;whiteSpace=wrap;rounded=0;" vertex="1" parent="1">
          <mxGeometry x="460" y="130" width="130" height="30" as="geometry" />
        </mxCell>
        <mxCell id="cIPJjEdQytVBV7SKIHsa-34" value="1" style="endArrow=open;html=1;endSize=12;startArrow=diamondThin;startSize=14;startFill=1;edgeStyle=orthogonalEdgeStyle;align=left;verticalAlign=bottom;strokeWidth=3;fontSize=24;exitX=-0.005;exitY=0.31;exitDx=0;exitDy=0;exitPerimeter=0;entryX=0.993;entryY=0.039;entryDx=0;entryDy=0;entryPerimeter=0;" edge="1" parent="1" source="cIPJjEdQytVBV7SKIHsa-36" target="cIPJjEdQytVBV7SKIHsa-18">
          <mxGeometry x="-1" y="3" relative="1" as="geometry">
            <mxPoint x="640" y="240" as="sourcePoint" />
            <mxPoint x="450" y="170" as="targetPoint" />
            <Array as="points">
              <mxPoint x="610" y="225" />
              <mxPoint x="540" y="225" />
              <mxPoint x="540" y="168" />
            </Array>
          </mxGeometry>
        </mxCell>
        <mxCell id="cIPJjEdQytVBV7SKIHsa-35" value="AutomatUNekomStanju" style="swimlane;fontStyle=1;align=center;verticalAlign=top;childLayout=stackLayout;horizontal=1;startSize=40;horizontalStack=0;resizeParent=1;resizeParentMax=0;resizeLast=0;collapsible=1;marginBottom=0;strokeWidth=3;fontSize=24;" vertex="1" parent="1">
          <mxGeometry x="630" y="170" width="470" height="200" as="geometry" />
        </mxCell>
        <mxCell id="cIPJjEdQytVBV7SKIHsa-36" value="ProdajniAutomat glavni&#xa;double ubacenNovac" style="text;strokeColor=none;fillColor=none;align=left;verticalAlign=top;spacingLeft=4;spacingRight=4;overflow=hidden;rotatable=0;points=[[0,0.5],[1,0.5]];portConstraint=eastwest;fontSize=18;" vertex="1" parent="cIPJjEdQytVBV7SKIHsa-35">
          <mxGeometry y="40" width="470" height="50" as="geometry" />
        </mxCell>
        <mxCell id="cIPJjEdQytVBV7SKIHsa-37" value="" style="line;strokeWidth=1;fillColor=none;align=left;verticalAlign=middle;spacingTop=-1;spacingLeft=3;spacingRight=3;rotatable=0;labelPosition=right;points=[];portConstraint=eastwest;" vertex="1" parent="cIPJjEdQytVBV7SKIHsa-35">
          <mxGeometry y="90" width="470" height="8" as="geometry" />
        </mxCell>
        <mxCell id="cIPJjEdQytVBV7SKIHsa-38" value="abstract void Ubacivanje(double iznos)&#xa;abstract void IzborProizvoda(double cena)&#xa;abstract void Odustajanje()&#xa;abstract void Cekanje()&#xa;&#xa;" style="text;strokeColor=none;fillColor=none;align=left;verticalAlign=top;spacingLeft=4;spacingRight=4;overflow=hidden;rotatable=0;points=[[0,0.5],[1,0.5]];portConstraint=eastwest;fontSize=18;" vertex="1" parent="cIPJjEdQytVBV7SKIHsa-35">
          <mxGeometry y="98" width="470" height="102" as="geometry" />
        </mxCell>
        <mxCell id="cIPJjEdQytVBV7SKIHsa-40" value="&lt;font style=&quot;font-size: 24px;&quot;&gt;Користи&lt;/font&gt;" style="text;html=1;strokeColor=none;fillColor=none;align=center;verticalAlign=middle;whiteSpace=wrap;rounded=0;" vertex="1" parent="1">
          <mxGeometry x="480" y="230" width="130" height="30" as="geometry" />
        </mxCell>
        <mxCell id="cIPJjEdQytVBV7SKIHsa-41" value="AutomatKojiVracaNovac" style="swimlane;fontStyle=1;align=center;verticalAlign=top;childLayout=stackLayout;horizontal=1;startSize=40;horizontalStack=0;resizeParent=1;resizeParentMax=0;resizeLast=0;collapsible=1;marginBottom=0;strokeWidth=3;fontSize=24;" vertex="1" parent="1">
          <mxGeometry x="1030" y="460" width="300" height="180" as="geometry" />
        </mxCell>
        <mxCell id="cIPJjEdQytVBV7SKIHsa-42" value=" " style="text;strokeColor=none;fillColor=none;align=left;verticalAlign=top;spacingLeft=4;spacingRight=4;overflow=hidden;rotatable=0;points=[[0,0.5],[1,0.5]];portConstraint=eastwest;fontSize=18;" vertex="1" parent="cIPJjEdQytVBV7SKIHsa-41">
          <mxGeometry y="40" width="300" height="30" as="geometry" />
        </mxCell>
        <mxCell id="cIPJjEdQytVBV7SKIHsa-43" value="" style="line;strokeWidth=1;fillColor=none;align=left;verticalAlign=middle;spacingTop=-1;spacingLeft=3;spacingRight=3;rotatable=0;labelPosition=right;points=[];portConstraint=eastwest;" vertex="1" parent="cIPJjEdQytVBV7SKIHsa-41">
          <mxGeometry y="70" width="300" height="8" as="geometry" />
        </mxCell>
        <mxCell id="cIPJjEdQytVBV7SKIHsa-44" value="void Ubacivanje(double iznos)&#xa;void IzborProizvoda(double cena)&#xa;void Odustajanje()&#xa;void Cekanje()&#xa;&#xa;" style="text;strokeColor=none;fillColor=none;align=left;verticalAlign=top;spacingLeft=4;spacingRight=4;overflow=hidden;rotatable=0;points=[[0,0.5],[1,0.5]];portConstraint=eastwest;fontSize=18;" vertex="1" parent="cIPJjEdQytVBV7SKIHsa-41">
          <mxGeometry y="78" width="300" height="102" as="geometry" />
        </mxCell>
        <mxCell id="cIPJjEdQytVBV7SKIHsa-45" value="AutomatKojiIsporucuje" style="swimlane;fontStyle=1;align=center;verticalAlign=top;childLayout=stackLayout;horizontal=1;startSize=40;horizontalStack=0;resizeParent=1;resizeParentMax=0;resizeLast=0;collapsible=1;marginBottom=0;strokeWidth=3;fontSize=24;" vertex="1" parent="1">
          <mxGeometry x="840" y="680" width="300" height="180" as="geometry" />
        </mxCell>
        <mxCell id="cIPJjEdQytVBV7SKIHsa-46" value=" " style="text;strokeColor=none;fillColor=none;align=left;verticalAlign=top;spacingLeft=4;spacingRight=4;overflow=hidden;rotatable=0;points=[[0,0.5],[1,0.5]];portConstraint=eastwest;fontSize=18;" vertex="1" parent="cIPJjEdQytVBV7SKIHsa-45">
          <mxGeometry y="40" width="300" height="30" as="geometry" />
        </mxCell>
        <mxCell id="cIPJjEdQytVBV7SKIHsa-47" value="" style="line;strokeWidth=1;fillColor=none;align=left;verticalAlign=middle;spacingTop=-1;spacingLeft=3;spacingRight=3;rotatable=0;labelPosition=right;points=[];portConstraint=eastwest;" vertex="1" parent="cIPJjEdQytVBV7SKIHsa-45">
          <mxGeometry y="70" width="300" height="8" as="geometry" />
        </mxCell>
        <mxCell id="cIPJjEdQytVBV7SKIHsa-48" value="void Ubacivanje(double iznos)&#xa;void IzborProizvoda(double cena)&#xa;void Odustajanje()&#xa;void Cekanje()" style="text;strokeColor=none;fillColor=none;align=left;verticalAlign=top;spacingLeft=4;spacingRight=4;overflow=hidden;rotatable=0;points=[[0,0.5],[1,0.5]];portConstraint=eastwest;fontSize=18;" vertex="1" parent="cIPJjEdQytVBV7SKIHsa-45">
          <mxGeometry y="78" width="300" height="102" as="geometry" />
        </mxCell>
        <mxCell id="cIPJjEdQytVBV7SKIHsa-49" value="SlobodanAutomat" style="swimlane;fontStyle=1;align=center;verticalAlign=top;childLayout=stackLayout;horizontal=1;startSize=40;horizontalStack=0;resizeParent=1;resizeParentMax=0;resizeLast=0;collapsible=1;marginBottom=0;strokeWidth=3;fontSize=24;" vertex="1" parent="1">
          <mxGeometry x="300" y="460" width="300" height="180" as="geometry" />
        </mxCell>
        <mxCell id="cIPJjEdQytVBV7SKIHsa-50" value=" " style="text;strokeColor=none;fillColor=none;align=left;verticalAlign=top;spacingLeft=4;spacingRight=4;overflow=hidden;rotatable=0;points=[[0,0.5],[1,0.5]];portConstraint=eastwest;fontSize=18;" vertex="1" parent="cIPJjEdQytVBV7SKIHsa-49">
          <mxGeometry y="40" width="300" height="30" as="geometry" />
        </mxCell>
        <mxCell id="cIPJjEdQytVBV7SKIHsa-51" value="" style="line;strokeWidth=1;fillColor=none;align=left;verticalAlign=middle;spacingTop=-1;spacingLeft=3;spacingRight=3;rotatable=0;labelPosition=right;points=[];portConstraint=eastwest;" vertex="1" parent="cIPJjEdQytVBV7SKIHsa-49">
          <mxGeometry y="70" width="300" height="8" as="geometry" />
        </mxCell>
        <mxCell id="cIPJjEdQytVBV7SKIHsa-52" value="void Ubacivanje(double iznos)&#xa;void IzborProizvoda(double cena)&#xa;void Odustajanje()&#xa;void Cekanje()&#xa;&#xa;" style="text;strokeColor=none;fillColor=none;align=left;verticalAlign=top;spacingLeft=4;spacingRight=4;overflow=hidden;rotatable=0;points=[[0,0.5],[1,0.5]];portConstraint=eastwest;fontSize=18;" vertex="1" parent="cIPJjEdQytVBV7SKIHsa-49">
          <mxGeometry y="78" width="300" height="102" as="geometry" />
        </mxCell>
        <mxCell id="cIPJjEdQytVBV7SKIHsa-53" value="Наслеђује" style="endArrow=block;endSize=16;endFill=0;html=1;strokeWidth=3;fontSize=24;exitX=0.5;exitY=0;exitDx=0;exitDy=0;entryX=0.5;entryY=1;entryDx=0;entryDy=0;entryPerimeter=0;" edge="1" parent="1" source="cIPJjEdQytVBV7SKIHsa-45" target="cIPJjEdQytVBV7SKIHsa-38">
          <mxGeometry width="160" relative="1" as="geometry">
            <mxPoint x="1095" y="620" as="sourcePoint" />
            <mxPoint x="1060" y="360" as="targetPoint" />
          </mxGeometry>
        </mxCell>
        <mxCell id="cIPJjEdQytVBV7SKIHsa-54" value="Наслеђује" style="endArrow=block;endSize=16;endFill=0;html=1;strokeWidth=3;fontSize=24;exitX=0.475;exitY=0.021;exitDx=0;exitDy=0;entryX=1.001;entryY=0.944;entryDx=0;entryDy=0;entryPerimeter=0;exitPerimeter=0;" edge="1" parent="1" source="cIPJjEdQytVBV7SKIHsa-41" target="cIPJjEdQytVBV7SKIHsa-38">
          <mxGeometry width="160" relative="1" as="geometry">
            <mxPoint x="1175" y="400" as="sourcePoint" />
            <mxPoint x="1140" y="140" as="targetPoint" />
          </mxGeometry>
        </mxCell>
      </root>
    </mxGraphModel>
  </diagram>
</mxfile>
